G04 ================== begin FILE IDENTIFICATION RECORD ==================*
G04 Layout Name:  E:/Travail/analyzer/interposer.brd*
G04 Film Name:    SOLDERMASK_BOT*
G04 File Format:  Gerber RS274X*
G04 File Origin:  Cadence Allegro 17.2-P019*
G04 Origin Date:  Tue Oct 10 22:16:47 2017*
G04 *
G04 Layer:  BOARD GEOMETRY/SOLDERMASK_BOTTOM*
G04 Layer:  PIN/SOLDERMASK_BOTTOM*
G04 Layer:  PACKAGE GEOMETRY/SOLDERMASK_BOTTOM*
G04 *
G04 Offset:    (0.0000 0.0000)*
G04 Mirror:    No*
G04 Mode:      Positive*
G04 Rotation:  0*
G04 FullContactRelief:  No*
G04 UndefLineWidth:     0.0000*
G04 ================== end FILE IDENTIFICATION RECORD ====================*
%FSLAX55Y55*MOMM*%
%IR0*IPPOS*OFA0.00000B0.00000*MIA0B0*SFA1.00000B1.00000*%
%ADD12R,.8X4.3*%
%ADD14R,.7112X3.2004*%
%ADD13R,.7112X4.191*%
%ADD16R,.8X.8*%
%ADD15R,1.2X1.1*%
%ADD17R,1.1X1.2*%
%ADD11C,2.2*%
%ADD10C,2.4*%
%ADD19R,.38X.74*%
%ADD18R,.74X.38*%
%ADD20R,1.7X1.7*%
%ADD21C,.8*%
G75*
%LPD*%
G75*
G36*
G01X3751580Y-934720D02*
X4870450D01*
X4870000Y-360000D01*
X3750000D01*
X3751580Y-934720D01*
G37*
G36*
G01X5062910Y-928610D02*
X5778280D01*
X5780000Y-360000D01*
X5060000D01*
X5062910Y-928610D01*
G37*
G54D10*
X2995000Y995000D03*
Y1505000D03*
Y1945000D03*
Y2455000D03*
Y3195000D03*
Y3705000D03*
Y4145000D03*
Y4655000D03*
X3505000Y995000D03*
Y1505000D03*
Y1945000D03*
Y2455000D03*
Y3195000D03*
Y3705000D03*
Y4145000D03*
Y4655000D03*
X8395000Y2445000D03*
Y2955000D03*
Y3395000D03*
Y3905000D03*
X8905000Y2445000D03*
Y2955000D03*
Y3395000D03*
Y3905000D03*
G54D20*
X4520000Y3910000D03*
X7270000Y3170000D03*
G54D11*
X3250000Y1250000D03*
Y2200000D03*
Y3450000D03*
Y4400000D03*
X8650000Y2700000D03*
Y3650000D03*
G54D21*
G01X2585720Y340360D02*
X2200000D01*
G01D02*
Y5953760D01*
G01D02*
X11700000D01*
G01X2585720Y-485140D02*
Y340360D01*
G01X3385820Y-485140D02*
X2585720D01*
G01X4870450Y-934720D02*
X3751580D01*
G01D02*
Y157490D01*
G01X3385820Y157480D02*
Y-485140D01*
G01X3751580Y157490D02*
G03X3385820Y157480I-182880J-10D01*
G01X4870450Y-189230D02*
Y-934720D01*
G01X5060950Y-189230D02*
G03X4870450I-95250J0D01*
G01X5781040Y-934720D02*
X5060950D01*
G01D02*
Y-189230D01*
G01X5781040Y340360D02*
Y-934720D01*
G01X11700000Y340360D02*
X5781040D01*
G01X11700000Y5953760D02*
Y340360D01*
G54D12*
X3340000Y5670000D03*
X3240000D03*
X3140000D03*
X3040000D03*
X3840000D03*
X3740000D03*
X3640000D03*
X3540000D03*
X3440000D03*
X4440000D03*
X4340000D03*
X4040000D03*
X3940000D03*
X5040000D03*
X4940000D03*
X4840000D03*
X4740000D03*
X4640000D03*
X4540000D03*
X5540000D03*
X5440000D03*
X5340000D03*
X5240000D03*
X5140000D03*
X6140000D03*
X6040000D03*
X5940000D03*
X5840000D03*
X5740000D03*
X5640000D03*
X6740000D03*
X6640000D03*
X6540000D03*
X6440000D03*
X6340000D03*
X6240000D03*
X7240000D03*
X7140000D03*
X7040000D03*
X6940000D03*
X6840000D03*
X7840000D03*
X7740000D03*
X7640000D03*
X7540000D03*
X7440000D03*
X7340000D03*
X8440000D03*
X8340000D03*
X8240000D03*
X8140000D03*
X8040000D03*
X7940000D03*
X9040000D03*
X8940000D03*
X8840000D03*
X8740000D03*
X8640000D03*
X8540000D03*
X9540000D03*
X9440000D03*
X9340000D03*
X9240000D03*
X9140000D03*
X10140000D03*
X10040000D03*
X9940000D03*
X9840000D03*
X9740000D03*
X9640000D03*
X10740000D03*
X10640000D03*
X10540000D03*
X10440000D03*
X10340000D03*
X10240000D03*
X11240000D03*
X11140000D03*
X11040000D03*
X10940000D03*
X10840000D03*
X11340000D03*
G54D13*
X3915690Y-586410D03*
X4415690D03*
X4315690D03*
X4215690D03*
X4115690D03*
X4015690D03*
X4815690D03*
X4715690D03*
X4615690D03*
X4515690D03*
X5615710D03*
X5515710D03*
X5415710D03*
X5315710D03*
X5215710D03*
X5115710D03*
X5715710D03*
G54D14*
X3815690Y-535610D03*
G54D15*
X3835000Y5250000D03*
X3665000D03*
X4125000Y4280000D03*
X4295000D03*
X4115000Y4120000D03*
X4285000D03*
X4685000Y350000D03*
X4515000D03*
X4765000Y1360000D03*
X4595000D03*
X4795000Y3590000D03*
X4625000D03*
X4795000Y3470000D03*
X4625000D03*
X4885000Y4240000D03*
X4715000D03*
X4955000Y4110000D03*
X4785000D03*
X5265000Y3850000D03*
X5435000D03*
X5165000Y3980000D03*
X5335000D03*
X6355000Y3110000D03*
X6525000D03*
X6445000Y3230000D03*
X6615000D03*
X7075000Y2840000D03*
X6905000D03*
X7005000Y2970000D03*
X6835000D03*
X7165000Y3610000D03*
X6995000D03*
X7165000Y3490000D03*
X6995000D03*
X7495000Y2800000D03*
X7665000D03*
X7505000Y2960000D03*
X7675000D03*
G54D16*
X4085000Y3860000D03*
X4195000D03*
X4395000Y3610000D03*
X4085000Y3960000D03*
X4195000D03*
X4505000Y3610000D03*
X4875000Y3860000D03*
X4985000D03*
X4875000Y3970000D03*
X4985000D03*
X6805000Y3110000D03*
X6915000D03*
X6805000Y3220000D03*
X6915000D03*
X7285000Y3470000D03*
X7595000Y3120000D03*
X7705000D03*
X7595000Y3220000D03*
X7705000D03*
X7395000Y3470000D03*
G54D17*
X4050000Y3655000D03*
Y3485000D03*
X4490000Y4455000D03*
Y4285000D03*
X7300000Y2795000D03*
Y2625000D03*
X7740000Y3595000D03*
Y3425000D03*
G54D18*
X4355000Y3885000D03*
Y3835000D03*
Y3935000D03*
Y3985000D03*
X4685000Y3885000D03*
Y3835000D03*
Y3935000D03*
Y3985000D03*
X7105000Y3245000D03*
Y3195000D03*
Y3095000D03*
Y3145000D03*
X7435000D03*
Y3095000D03*
Y3195000D03*
Y3245000D03*
G54D19*
X4445000Y3745000D03*
Y4075000D03*
X4595000Y3745000D03*
X4495000D03*
X4545000D03*
X4495000Y4075000D03*
X4545000D03*
X4595000D03*
X7245000Y3335000D03*
X7195000D03*
X7295000D03*
Y3005000D03*
X7195000D03*
X7245000D03*
X7345000Y3335000D03*
Y3005000D03*
M02*
