G04 ================== begin FILE IDENTIFICATION RECORD ==================*
G04 Layout Name:  E:/Travail/analyzer/interposer.brd*
G04 Film Name:    TOP*
G04 File Format:  Gerber RS274X*
G04 File Origin:  Cadence Allegro 17.2-P019*
G04 Origin Date:  Tue Oct 10 22:16:47 2017*
G04 *
G04 Layer:  ETCH/TOP*
G04 Layer:  PIN/TOP*
G04 Layer:  VIA CLASS/TOP*
G04 *
G04 Offset:    (0.0000 0.0000)*
G04 Mirror:    No*
G04 Mode:      Positive*
G04 Rotation:  0*
G04 FullContactRelief:  No*
G04 UndefLineWidth:     0.1000*
G04 ================== end FILE IDENTIFICATION RECORD ====================*
%FSLAX55Y55*MOMM*%
%IR0*IPPOS*OFA0.00000B0.00000*MIA0B0*SFA1.00000B1.00000*%
%ADD12R,.7X4.2*%
%ADD13C,.6*%
%ADD23R,.7112X3.2004*%
%ADD14R,.7112X4.191*%
%ADD19R,.7X.7*%
%ADD16R,1.1X1.*%
%ADD17R,1.X1.1*%
%ADD15R,1.3X1.5*%
%ADD11C,2.*%
%ADD18R,.24X.6*%
%ADD21R,.6X.24*%
%ADD10C,2.2*%
%ADD20R,.8X.8*%
%ADD22R,1.6X1.6*%
%ADD24C,.2*%
%ADD25C,.4*%
%ADD26C,.15*%
%ADD27C,.25*%
%ADD28C,.8544*%
G75*
%LPD*%
G75*
G36*
G01X4340000Y2390000D02*
X4250000Y2480000D01*
Y3399590D01*
G03Y3460410I-30000J30410D01*
G01Y4720000D01*
X4180000Y4790000D01*
X4102720D01*
Y4890000D01*
G03X4090000Y4902720I-12720J0D01*
G01X3990000D01*
G03X3977280Y4890000I0J-12720D01*
G01Y4790000D01*
X3970000D01*
X3720000Y5040000D01*
Y5102280D01*
X3830000D01*
G03X3842720Y5115000I0J12720D01*
G01Y5265000D01*
G03X3830000Y5277720I-12720J0D01*
G01X3720000D01*
Y5420000D01*
X3960000D01*
X3970000Y5410000D01*
Y5130000D01*
X4080000Y5020000D01*
X4340000D01*
X4700000Y4660000D01*
Y4262720D01*
X4600000D01*
G03X4587280Y4250000I0J-12720D01*
G01Y4205400D01*
G02X4571910Y4196670I-10161J-6D01*
G03X4586330Y4137530I-21911J-36671D01*
G02X4593320Y4139180I4321J-2675D01*
G03X4600000Y4137280I6687J10818D01*
G01X4700000D01*
Y3800410D01*
G03Y3739590I30000J-30410D01*
G01Y2510000D01*
X4580000Y2390000D01*
X4340000D01*
G37*
G36*
G01Y-280000D02*
X4180000Y-120000D01*
Y262970D01*
X4185800D01*
X4186480Y262780D01*
G03X4190000Y262280I3531J12218D01*
G01X4320000D01*
G03X4332720Y275000I0J12720D01*
G01Y425000D01*
G03X4320000Y437720I-12720J0D01*
G01X4190000D01*
G03X4186480Y437220I11J-12718D01*
G01X4185800Y437030D01*
X4180000D01*
Y459340D01*
G02X4194530Y468520I10161J7D01*
G03X4200000Y467280I5478J11478D01*
G01X4310000D01*
G03X4322720Y480000I0J12720D01*
G01Y580000D01*
G03X4310000Y592720I-12720J0D01*
G01X4200000D01*
G03X4194530Y591480I8J-12718D01*
G02X4180000Y600660I-4369J9173D01*
G01Y1307280D01*
X4270000D01*
G03X4282720Y1320000I0J12720D01*
G01Y1420000D01*
G03X4270000Y1432720I-12720J0D01*
G01X4180000D01*
Y1457280D01*
X4270000D01*
G03X4282720Y1470000I0J12720D01*
G01Y1570000D01*
G03X4270000Y1582720I-12720J0D01*
G01X4180000D01*
Y1670000D01*
X4190000Y1680000D01*
X4232300D01*
G02X4242380Y1668580I-2J-10160D01*
G03X4242280Y1667000I12619J-1592D01*
G01Y1643000D01*
G03X4255000Y1630280I12720J0D01*
G01X4315000D01*
G03X4317690Y1630570I-11J12719D01*
G02X4330000Y1620640I2150J-9930D01*
G01Y1540000D01*
X4350000Y1520000D01*
X4454780D01*
Y1506420D01*
X4501420Y1459780D01*
X4512370D01*
G03X4561750Y1521070I37631J20219D01*
G01X4560480Y1521440D01*
X4555960Y1525960D01*
X4560000Y1530000D01*
Y1670000D01*
X4567510Y1677510D01*
X4573010Y1672020D01*
X4572500Y1669380D01*
G03X4572280Y1667000I12502J-2356D01*
G01Y1643000D01*
G03X4585000Y1630280I12720J0D01*
G01X4645000D01*
G03X4657720Y1643000I0J12720D01*
G01Y1667000D01*
G03X4657620Y1668580I-12719J-12D01*
G02X4667700Y1680000I10082J1260D01*
G01X4707870D01*
X4710590Y1677280D01*
X4712720D01*
X4720000Y1670000D01*
Y1592720D01*
X4660000D01*
G03X4647280Y1580000I0J-12720D01*
G01Y1480000D01*
G03X4660000Y1467280I12720J0D01*
G01X4720000D01*
Y1452720D01*
X4660000D01*
G03X4647280Y1440000I0J-12720D01*
G01Y1340000D01*
G03X4660000Y1327280I12720J0D01*
G01X4672720D01*
X4700000Y1300000D01*
Y80000D01*
X4780000Y0D01*
Y-250000D01*
X4750000Y-280000D01*
X4447750D01*
G03X4372250I-37750J-20000D01*
G01X4340000D01*
G37*
G36*
G01X5600000Y2330000D02*
Y2700000D01*
X7780000D01*
X7790000Y2690000D01*
Y2360000D01*
X7760000Y2330000D01*
X5600000D01*
G37*
%LPC*%
G75*
G36*
G01X4482720Y1130000D02*
G02X4470000Y1117280I-12720J0D01*
G01X4370000D01*
G02X4357280Y1130000I0J12720D01*
G01Y1134970D01*
G03X4343830Y1144580I-10160J-2D01*
G02Y1225420I-13830J40420D01*
G03X4357280Y1235030I3290J9612D01*
G01Y1240000D01*
G02X4370000Y1252720I12720J0D01*
G01X4381880D01*
Y1287280D01*
X4370000D01*
G02X4357280Y1300000I0J12720D01*
G01Y1410000D01*
G02X4370000Y1422720I12720J0D01*
G01X4470000D01*
G02X4482720Y1410000I0J-12720D01*
G01Y1300000D01*
G02X4470000Y1287280I-12720J0D01*
G01X4458120D01*
Y1252720D01*
X4470000D01*
G02X4482720Y1240000I0J-12720D01*
G01Y1235030D01*
G03X4496170Y1225420I10160J2D01*
G02Y1144580I13830J-40420D01*
G03X4482720Y1134970I-3290J-9612D01*
G01Y1130000D01*
G37*
G54D28*
X4310000Y3780000D03*
X4490000Y4560000D03*
X4520000Y3910000D03*
X4510000Y260000D03*
X7410000Y2630000D03*
%LPD*%
G75*
G54D10*
X2995000Y995000D03*
Y1505000D03*
Y1945000D03*
Y2455000D03*
Y3195000D03*
Y3705000D03*
Y4145000D03*
Y4655000D03*
X3505000Y995000D03*
Y1505000D03*
Y1945000D03*
Y2455000D03*
Y3195000D03*
Y3705000D03*
Y4145000D03*
Y4655000D03*
X8395000Y2445000D03*
Y2955000D03*
Y3395000D03*
Y3905000D03*
X8905000Y2445000D03*
Y2955000D03*
Y3395000D03*
Y3905000D03*
G54D20*
X4150000Y2142500D03*
Y1977500D03*
X4050000Y3517500D03*
Y3682500D03*
X7550000Y3582500D03*
Y3417500D03*
G54D11*
X3250000Y1250000D03*
Y2200000D03*
Y3450000D03*
Y4400000D03*
X8650000Y2700000D03*
Y3650000D03*
G54D21*
X4285000Y1705000D03*
Y1755000D03*
Y1805000D03*
Y1655000D03*
X4615000Y1705000D03*
Y1755000D03*
Y1805000D03*
Y1655000D03*
G54D12*
X3340000Y5670000D03*
X3240000D03*
X3140000D03*
X3040000D03*
X3840000D03*
X3740000D03*
X3640000D03*
X3540000D03*
X3440000D03*
X4440000D03*
X4340000D03*
X4040000D03*
X3940000D03*
X5040000D03*
X4940000D03*
X4840000D03*
X4740000D03*
X4640000D03*
X4540000D03*
X5540000D03*
X5440000D03*
X5340000D03*
X5240000D03*
X5140000D03*
X6140000D03*
X6040000D03*
X5940000D03*
X5840000D03*
X5740000D03*
X5640000D03*
X6740000D03*
X6640000D03*
X6540000D03*
X6440000D03*
X6340000D03*
X6240000D03*
X7240000D03*
X7140000D03*
X7040000D03*
X6940000D03*
X6840000D03*
X7840000D03*
X7740000D03*
X7640000D03*
X7540000D03*
X7440000D03*
X7340000D03*
X8440000D03*
X8340000D03*
X8240000D03*
X8140000D03*
X8040000D03*
X7940000D03*
X9040000D03*
X8940000D03*
X8840000D03*
X8740000D03*
X8640000D03*
X8540000D03*
X9540000D03*
X9440000D03*
X9340000D03*
X9240000D03*
X9140000D03*
X10140000D03*
X10040000D03*
X9940000D03*
X9840000D03*
X9740000D03*
X9640000D03*
X10740000D03*
X10640000D03*
X10540000D03*
X10440000D03*
X10340000D03*
X10240000D03*
X11240000D03*
X11140000D03*
X11040000D03*
X10940000D03*
X10840000D03*
X11340000D03*
G54D22*
X4450000Y1730000D03*
G54D13*
X3340000Y5360000D03*
X3140000D03*
X3910000Y-250000D03*
X3940000Y1520000D03*
Y1370000D03*
X3840000Y5360000D03*
X3640000D03*
X3440000Y5190000D03*
X4110000Y-300000D03*
X4410000D03*
X4070000Y240000D03*
X4510000Y260000D03*
X4250000Y1060000D03*
X4420000D03*
X4080000Y630000D03*
X4510000Y1185000D03*
X4330000D03*
X4200000Y1850000D03*
X4450000Y1730000D03*
X4240000Y2140000D03*
X4490000Y2550000D03*
X4370000D03*
X4050000Y3350000D03*
X4220000Y3430000D03*
X4310000Y3780000D03*
X4200000Y3760000D03*
X4350000Y4490000D03*
Y4400000D03*
X4010000Y4280000D03*
Y4120000D03*
X4490000Y4560000D03*
X4040000Y4550000D03*
X4340000Y5350000D03*
X4710000Y-230000D03*
X4610000D03*
X4655200Y250000D03*
X4580000Y1060000D03*
X4990000Y1530000D03*
X4980000Y1390000D03*
X4550000Y1480000D03*
X4660000Y1870000D03*
X4820000Y2170000D03*
Y2050000D03*
X4610000Y2550000D03*
X4900000Y3590000D03*
X4890000Y3470000D03*
X4730000Y3770000D03*
X4520000Y3910000D03*
X4630000Y4490000D03*
Y4390000D03*
X5000000Y4240000D03*
X5050000Y4110000D03*
X4550000Y4160000D03*
X4690000Y5350000D03*
X4940000Y5340000D03*
X5140000Y-290000D03*
X5470000Y-280000D03*
X5640000Y2630000D03*
Y2510000D03*
Y2380000D03*
X5140000Y5340000D03*
X5440000D03*
X5540000D03*
X5240000D03*
X5340000D03*
X5640000D03*
X5710000Y-270000D03*
X5840000Y5340000D03*
X5940000D03*
X5740000D03*
X6040000D03*
X6720000Y2970000D03*
X6240000Y5340000D03*
X6340000D03*
X6540000D03*
X6640000D03*
X6740000Y5330000D03*
X7100000Y2450000D03*
X7240000D03*
X6790000Y2840000D03*
X7070000Y3330000D03*
X7270000Y3170000D03*
X7240000Y2920000D03*
X6880000Y3610000D03*
Y3490000D03*
X6840000Y5330000D03*
X6940000D03*
X7240000D03*
X7340000D03*
X7040000D03*
X7140000D03*
X7420000Y2450000D03*
X7410000Y2630000D03*
X7780000Y2800000D03*
X7510000Y3267300D03*
X7790000Y2960000D03*
X7580000Y3320000D03*
X7740000Y3720000D03*
X7570000Y3690000D03*
X7640000Y5330000D03*
X7740000Y5320000D03*
X7440000Y5330000D03*
X7540000D03*
X7840000Y5320000D03*
X8040000D03*
X8240000Y5310000D03*
X8340000D03*
X8540000D03*
X8640000D03*
X8940000D03*
X9040000D03*
X8740000D03*
X8840000D03*
X9340000D03*
X9440000Y5320000D03*
X9140000Y5310000D03*
X9240000D03*
X9540000D03*
X9730000Y5320000D03*
X9840000D03*
X9640000Y5330000D03*
X9940000Y5320000D03*
X10040000D03*
X10340000D03*
X10440000D03*
X10740000D03*
X10640000Y5330000D03*
X10840000D03*
X11140000Y5320000D03*
X11340000D03*
G54D14*
X3915690Y-586410D03*
X3815690D03*
X4415690D03*
X4315690D03*
X4215690D03*
X4115690D03*
X4015690D03*
X4815690D03*
X4715690D03*
X4615690D03*
X4515690D03*
X5515710D03*
X5415710D03*
X5315710D03*
X5215710D03*
X5115710D03*
X5715710D03*
G54D23*
X5615710Y-535610D03*
G54D24*
G01X4125000Y1680000D02*
X4155000Y1710000D01*
X4218150D01*
X4223150Y1705000D01*
X4285000D01*
G01X4125000Y1780000D02*
X4155000Y1750000D01*
X4218150D01*
X4223150Y1755000D01*
X4285000D01*
G01X4950000Y365000D02*
Y240000D01*
X4815690Y105690D01*
Y-411150D01*
G01X4615000Y1705000D02*
X4676850D01*
X4681850Y1710000D01*
X4710000D01*
X4720000Y1700000D01*
X4775000D01*
X4805000Y1670000D01*
G01X4615000Y1755000D02*
X4676850D01*
X4681850Y1750000D01*
X4726570D01*
X4736570Y1740000D01*
X4765000D01*
X4805000Y1780000D01*
G01X5125000Y1660000D02*
Y1690000D01*
X5110000Y1705000D01*
X5001850D01*
X4966850Y1670000D01*
X4915000D01*
G01X5225000Y1790000D02*
X5180000Y1745000D01*
X5001850D01*
X4966850Y1780000D01*
X4915000D01*
G01X4840000Y5670000D02*
Y5300000D01*
X5560000Y4580000D01*
X9090000D01*
X9360000Y4310000D01*
Y1500000D01*
X8960000Y1100000D01*
X5960000D01*
X5615710Y755710D01*
Y-411150D01*
G01X7750000Y2520000D02*
X7760000Y2530000D01*
G01D02*
X7870000D01*
X7960000Y2620000D01*
Y3660000D01*
X7900000Y3720000D01*
X7740000D01*
G54D15*
X3575000Y5190000D03*
X3765000D03*
X4065000Y350000D03*
X4255000D03*
G54D25*
G01X3040000Y5360000D02*
X2750000D01*
X2480000Y5090000D01*
Y770000D01*
X2680000Y570000D01*
X3800000D01*
X3910000Y460000D01*
Y-250000D01*
G01X3140000Y5670000D02*
Y5360000D01*
G01D02*
X3210000D01*
X3240000Y5390000D01*
Y5670000D01*
G01X3140000Y5360000D02*
X3040000D01*
G01D02*
Y5670000D01*
G01X3915690Y-411150D02*
Y-255690D01*
X3910000Y-250000D01*
G01D02*
X3843980D01*
X3815690Y-278290D01*
Y-411150D01*
G01X3740000Y5670000D02*
Y5400000D01*
G01X3340000Y5670000D02*
Y5360000D01*
G01X3640000Y5670000D02*
Y5360000D01*
G01X3575000Y5190000D02*
X3440000D01*
G01X4415690Y-411150D02*
Y-305690D01*
X4410000Y-300000D01*
G01X4115690Y-411150D02*
Y-305690D01*
X4110000Y-300000D01*
G01X3910000Y-250000D02*
X3987400D01*
X4015690Y-278290D01*
Y-411150D01*
G01X4065000Y350000D02*
Y245000D01*
X4070000Y240000D01*
G01X4085000Y530000D02*
Y625000D01*
X4080000Y630000D01*
G01X4290000Y2500000D02*
X4237300D01*
X3980000Y2242700D01*
Y2155000D01*
G01X4050000Y3350000D02*
X4290000D01*
G01X4040000Y4665000D02*
Y4550000D01*
G01X3940000Y5670000D02*
Y5390000D01*
G01X4440000Y5670000D02*
Y5450000D01*
X4340000Y5350000D01*
G01X4510000Y-230000D02*
X4515690Y-235690D01*
G01D02*
Y-411150D01*
G01X4950000Y535000D02*
X4675000D01*
G01D02*
X4650000Y560000D01*
G01X4740000Y5670000D02*
Y5400000D01*
X4690000Y5350000D01*
G01X4940000Y5670000D02*
Y5340000D01*
G01X5215710Y-411150D02*
Y-365710D01*
X5140000Y-290000D01*
G01X5515710Y-411150D02*
Y-325710D01*
X5470000Y-280000D01*
G01X5240000Y5670000D02*
Y5340000D01*
G01X5340000Y5670000D02*
Y5340000D01*
G01X5715710Y-411150D02*
Y-275710D01*
X5710000Y-270000D01*
G01X5640000Y5670000D02*
Y5340000D01*
G01X5740000Y5670000D02*
Y5340000D01*
G01X6040000Y5670000D02*
Y5340000D01*
G01X6885000Y2980000D02*
X6792700D01*
X6782700Y2970000D01*
X6720000D01*
G01X6340000Y5670000D02*
Y5340000D01*
G01X6640000Y5670000D02*
Y5340000D01*
G01X6740000Y5670000D02*
Y5330000D01*
G01X7040000Y5670000D02*
Y5330000D01*
G01X7140000Y5670000D02*
Y5330000D01*
G01X7440000Y5670000D02*
Y5330000D01*
G01X7540000Y5670000D02*
Y5330000D01*
G01X7840000Y5670000D02*
Y5320000D01*
G01X8040000Y5670000D02*
Y5320000D01*
G01X8340000Y5670000D02*
Y5310000D01*
G01X8440000Y5670000D02*
Y5410000D01*
X8340000Y5310000D01*
G01X8740000Y5670000D02*
Y5310000D01*
G01X8840000Y5670000D02*
Y5310000D01*
G01X9140000Y5670000D02*
Y5310000D01*
G01X9240000Y5670000D02*
Y5310000D01*
G01X9540000Y5670000D02*
Y5310000D01*
G01X9640000Y5670000D02*
Y5330000D01*
G01X9940000Y5670000D02*
Y5320000D01*
G01X10040000Y5670000D02*
Y5320000D01*
G01X10340000Y5670000D02*
Y5320000D01*
G01X10440000Y5670000D02*
Y5320000D01*
G01X10740000Y5670000D02*
Y5320000D01*
G01X10840000Y5670000D02*
Y5330000D01*
G01X11140000Y5670000D02*
Y5320000D01*
G54D16*
X4255000Y530000D03*
X4085000D03*
X4045000Y1370000D03*
X4215000D03*
X4045000Y1520000D03*
X4215000D03*
X4885000Y1390000D03*
X4715000D03*
X4885000Y1530000D03*
X4715000D03*
X4725000Y2050000D03*
X4555000D03*
X4725000Y2170000D03*
X4555000D03*
X4655000Y4200000D03*
X4825000D03*
X5125000Y1660000D03*
X5295000D03*
X5225000Y1790000D03*
X5395000D03*
X7055000Y2980000D03*
X6885000D03*
G54D26*
G01X3765000Y5097200D02*
Y5190000D01*
G01D02*
Y5282800D01*
G01Y5190000D02*
X3847800D01*
G01X4255000Y257200D02*
Y350000D01*
G01D02*
Y442800D01*
G01Y350000D02*
X4337800D01*
G01X4255000Y462200D02*
Y530000D01*
G01D02*
Y597800D01*
G01Y530000D02*
X4327800D01*
G01X4285000Y1625200D02*
Y1655000D01*
G01X4215000Y1452200D02*
Y1520000D01*
G01D02*
Y1587800D01*
G01Y1520000D02*
X4287800D01*
G01X4215000Y1302200D02*
Y1370000D01*
G01D02*
Y1437800D01*
G01Y1370000D02*
X4287800D01*
G01X4420000Y1355000D02*
Y1427800D01*
G01X4352200Y1355000D02*
X4420000D01*
G01D02*
X4487800D01*
G01X4045000Y1370000D02*
X3940000D01*
G01X4045000Y1520000D02*
X3940000D01*
G01X4420000Y1185000D02*
X4330000D01*
G01X4420000D02*
X4510000D01*
G01X4375000Y1565000D02*
Y1655000D01*
X4450000Y1730000D01*
G01X4237200Y1655000D02*
X4285000D01*
G01X4200000Y1850000D02*
X4210000Y1840000D01*
Y1829800D01*
X4234800Y1805000D01*
X4285000D01*
G01X4150000Y2142500D02*
X4237500D01*
X4240000Y2140000D01*
G01X4375000Y1895000D02*
X4232500D01*
X4150000Y1977500D01*
G01D02*
X4057700D01*
X4050200Y1985000D01*
X3980000D01*
G01X4325000Y2030000D02*
Y1974800D01*
X4339800Y1960000D01*
X4410200D01*
X4425000Y1945200D01*
Y1895000D01*
G01X4435000Y2030000D02*
Y1985200D01*
X4475000Y1945200D01*
Y1895000D01*
G01X4050000Y3517500D02*
X4132500D01*
X4220000Y3430000D01*
G01X4050000Y3682500D02*
X4122500D01*
X4200000Y3760000D01*
G01X4040000Y4835000D02*
Y4907800D01*
G01X3972200Y4835000D02*
X4040000D01*
G01D02*
X4107800D01*
G01X4615000Y1625200D02*
Y1655000D01*
G01X4715000Y1462200D02*
Y1530000D01*
G01D02*
Y1597800D01*
G01X4642200Y1530000D02*
X4715000D01*
G01Y1390000D02*
Y1457800D01*
G01X4642200Y1390000D02*
X4715000D01*
G01X4885000Y1530000D02*
X4990000D01*
G01X4885000Y1390000D02*
X4980000D01*
G01X4475000Y1565000D02*
Y1514800D01*
X4509800Y1480000D01*
X4550000D01*
G01X4567200Y1655000D02*
X4615000D01*
G01D02*
X4662800D01*
G01X4660000Y1870000D02*
X4640000D01*
X4615000Y1845000D01*
Y1805000D01*
G01X4725000Y2170000D02*
X4820000D01*
G01X4725000Y2050000D02*
X4820000D01*
G01X4525000Y1895000D02*
Y1949800D01*
X4555000Y1979800D01*
Y2050000D01*
G01D02*
Y2170000D01*
G01X4825000Y4200000D02*
X4960000D01*
X5000000Y4240000D01*
G01X4550000Y4160000D02*
X4560000Y4170000D01*
X4625000D01*
X4655000Y4200000D01*
G01X7240000Y2920000D02*
X7180000Y2980000D01*
X7055000D01*
G01X7550000Y3417500D02*
Y3350000D01*
X7580000Y3320000D01*
G01X7550000Y3582500D02*
Y3670000D01*
X7570000Y3690000D01*
G54D17*
X4420000Y1185000D03*
Y1355000D03*
X3980000Y1985000D03*
Y2155000D03*
X4040000Y4835000D03*
Y4665000D03*
X4950000Y535000D03*
Y365000D03*
G54D27*
G01X3250000Y1250000D02*
Y1678500D01*
X3280000Y1708500D01*
X3933620D01*
X3962120Y1680000D01*
X4015000D01*
G01X3250000Y2200000D02*
Y1781500D01*
X3280000Y1751500D01*
X3933620D01*
X3962120Y1780000D01*
X4015000D01*
G01X5310000Y1730000D02*
Y2051500D01*
X5320000Y2061500D01*
Y4062630D01*
G03X5039590Y4739590I-957360J-2D01*
G01X4656410Y5122770D01*
G02X4568250Y5335650I212828J212833D01*
G01X4568380Y5396040D01*
X4568390D01*
X4561010Y5403440D01*
X4561060Y5421060D01*
X4547320Y5434800D01*
G02X4540000Y5452480I17691J17680D01*
G01Y5670000D01*
G01X5395000Y1790000D02*
Y1935000D01*
X5360000Y1970000D01*
Y2040680D01*
X5363000Y2043680D01*
Y4062640D01*
G03X5070000Y4770000I-1000362J-4D01*
G01X4686820Y5153180D01*
G02X4611260Y5335600I182423J182420D01*
G01X4611390Y5395960D01*
X4618770Y5403300D01*
X4618820Y5420940D01*
X4632680Y5434800D01*
G03X4640000Y5452480I-17691J17680D01*
G01Y5670000D01*
G01X5295000Y1660000D02*
Y1559210D01*
X5344210Y1510000D01*
Y-330480D01*
X5315710Y-358980D01*
Y-411150D01*
G01X5395000Y1790000D02*
Y1517790D01*
X5387210Y1510000D01*
Y-330480D01*
X5415710Y-358980D01*
Y-411150D01*
G01X5295000Y1699800D02*
X5310000Y1714800D01*
Y1730000D01*
G01X5295000Y1660000D02*
Y1699800D01*
G01X5310000Y1730000D02*
X5295000Y1715000D01*
Y1699800D01*
G54D18*
X4375000Y1565000D03*
X4425000D03*
X4375000Y1895000D03*
X4425000D03*
X4475000Y1565000D03*
X4525000D03*
Y1895000D03*
X4475000D03*
G54D19*
X4015000Y1680000D03*
X4125000D03*
X4015000Y1780000D03*
X4125000D03*
X4325000Y2030000D03*
X4435000D03*
X4805000Y1670000D03*
X4915000D03*
X4805000Y1780000D03*
X4915000D03*
M02*
